<?xml version="1.0" standalone="no"?>
<!DOCTYPE svg PUBLIC "-//W3C//DTD SVG 20010904//EN"
 "http://www.w3.org/TR/2001/REC-SVG-20010904/DTD/svg10.dtd">
<svg version="1.0" xmlns="http://www.w3.org/2000/svg"
 width="296.000000pt" height="296.000000pt" viewBox="0 0 296.000000 296.000000"
 preserveAspectRatio="xMidYMid meet">
<metadata>
Created by potrace 1.11, written by Peter Selinger 2001-2013
</metadata>
<g transform="translate(0.000000,296.000000) scale(0.100000,-0.100000)"
fill="#000000" stroke="none">
<path d="M1328 2725 c-2 -2 -28 -6 -59 -9 -59 -7 -68 -8 -159 -27 -193 -39
-455 -136 -585 -218 -67 -42 -115 -82 -115 -95 0 -7 28 -29 63 -50 204 -122
307 -197 405 -296 226 -228 269 -460 135 -725 -47 -93 -77 -128 -169 -200 -99
-78 -120 -105 -104 -135 11 -21 17 -22 70 -17 116 13 231 77 337 191 67 71
139 202 149 271 3 22 8 43 11 48 2 4 4 44 4 90 -2 266 -190 526 -544 755 l-87
56 42 26 c257 159 524 237 796 232 224 -4 420 -56 757 -202 179 -78 177 -77
130 -34 -187 172 -429 287 -690 328 -73 11 -377 20 -387 11z"/>
<path d="M1499 2450 c-18 -17 -30 -33 -28 -34 2 -2 36 -7 74 -11 39 -3 79 -8
90 -10 11 -3 38 -7 60 -10 68 -9 211 -54 358 -111 77 -30 142 -53 144 -50 8 7
-132 106 -194 136 -118 58 -266 99 -416 115 -55 6 -59 4 -88 -25z"/>
<path d="M1449 2232 c-62 -42 -52 -58 39 -60 91 -1 177 -20 316 -68 112 -39
219 -66 211 -55 -10 17 -149 104 -210 132 -126 57 -309 84 -356 51z"/>
<path d="M570 1970 c-25 -5 -63 -11 -85 -15 -101 -17 -156 -68 -234 -220 -53
-104 -58 -110 -86 -109 -17 0 -42 4 -56 8 l-25 7 7 -68 c11 -105 30 -140 99
-182 49 -29 70 -28 70 7 2 128 66 272 165 366 36 35 182 136 196 136 3 0 16
-8 27 -19 40 -34 54 -85 67 -249 3 -35 10 -72 16 -83 10 -20 57 -44 67 -35 7
7 4 252 -3 310 -18 132 -80 172 -225 146z"/>
<path d="M1810 1877 c0 -4 19 -30 43 -59 101 -124 146 -158 133 -100 -14 59
-16 57 53 55 144 -6 326 -48 444 -103 79 -38 109 -58 168 -115 219 -213 156
-562 -163 -896 -80 -84 -205 -195 -320 -284 -34 -26 -38 -34 -36 -67 1 -21 7
-38 13 -38 16 0 169 93 247 150 92 67 298 274 366 367 127 173 191 327 197
468 5 99 -6 150 -50 241 -59 121 -188 225 -360 289 -76 29 -207 62 -278 70
-25 3 -56 8 -68 11 -38 7 -389 17 -389 11z"/>
<path d="M433 1601 c-85 -175 -161 -275 -252 -333 -54 -33 -86 -37 -78 -9 4
15 1 18 -12 14 -9 -3 -22 -11 -29 -16 -17 -13 -47 -84 -56 -130 -8 -43 -7 -42
84 6 85 45 168 108 248 186 77 76 83 77 85 6 1 -19 4 -35 7 -35 16 0 49 50 60
90 14 49 16 259 3 301 -7 24 -13 17 -60 -80z"/>
<path d="M633 1568 c-44 -71 -112 -222 -138 -308 -68 -228 -42 -419 77 -552
28 -32 41 -38 80 -42 28 -2 55 2 65 9 15 11 14 17 -10 77 -32 80 -55 168 -64
245 -9 71 -9 274 0 363 4 36 9 97 12 135 3 39 8 80 11 93 7 33 -3 27 -33 -20z"/>
<path d="M1401 1494 c-17 -68 -18 -107 -1 -109 8 -1 43 -5 77 -9 107 -12 257
-73 368 -150 74 -52 327 -280 478 -432 14 -14 24 15 26 74 1 57 1 58 -77 162
-245 328 -480 479 -773 497 l-88 6 -10 -39z"/>
<path d="M1458 969 c-131 -20 -278 -87 -418 -193 -132 -99 -367 -338 -413
-419 -19 -33 -18 -100 1 -119 14 -14 27 -5 143 103 131 121 183 166 239 209
25 19 47 37 50 40 15 17 169 113 223 139 202 96 364 101 536 18 78 -38 101
-38 131 1 26 33 25 64 -2 81 -135 86 -210 120 -299 136 -52 10 -139 12 -191 4z"/>
<path d="M1767 649 c-18 -14 -27 -29 -25 -43 3 -20 8 -21 137 -21 74 0 140 5
148 10 9 7 11 20 7 41 l-6 30 -117 3 c-107 2 -119 0 -144 -20z"/>
<path d="M200 652 c-16 -6 -12 -18 15 -50 24 -29 26 -29 123 -28 110 1 132 11
132 56 l0 28 -130 -1 c-71 -1 -134 -3 -140 -5z"/>
<path d="M2073 585 c-53 -45 -83 -94 -83 -134 0 -17 3 -31 6 -31 3 0 37 26 75
57 67 56 76 67 85 118 7 38 -33 33 -83 -10z"/>
<path d="M555 554 c-88 -64 -91 -67 -104 -91 -15 -29 -14 -39 4 -57 21 -21 41
-11 110 52 46 42 58 60 62 91 3 21 1 41 -4 44 -4 3 -35 -14 -68 -39z"/>
</g>
</svg>
